PathFileType	4	(X/Y/Z)	pose_F01_0-96.trc
DataRate	CameraRate	NumFrames	NumMarkers	Units	OrigDataRate	OrigDataStartFrame	OrigNumFrames
30	30	9	21	m	30	24	96
Frame#	Time	CHip			RHip			RKnee			RAnkle			RBigToe			RSmallToe			RHeel			LHip			LKnee			LAnkle			LBigToe			LSmallToe			LHeel			Neck			Nose			RShoulder			RElbow			RWrist			LShoulder			LElbow			LWrist			
		X1	Y1	Z1	X2	Y2	Z2	X3	Y3	Z3	X4	Y4	Z4	X5	Y5	Z5	X6	Y6	Z6	X7	Y7	Z7	X8	Y8	Z8	X9	Y9	Z9	X10	Y10	Z10	X11	Y11	Z11	X12	Y12	Z12	X13	Y13	Z13	X14	Y14	Z14	X15	Y15	Z15	X16	Y16	Z16	X17	Y17	Z17	X18	Y18	Z18	X19	Y19	Z19	X20	Y20	Z20	X21	Y21	Z21	
24	0.8	-0.2191404877580998	1.8223072264710063	-0.5193264050887305	-0.23859162043863646	1.8189351594421428	-0.4669335729290521	-0.23807912068307055	1.6838725865861865	-0.474190314384406	-0.17325240241736115	1.5891767569288464	-0.4722186942386696	-0.2511509270466865	1.5381125336092751	-0.5274546943441707				-0.13513243636947336	1.5916589241795056	-0.4523827528985625	-0.1969403721375752	1.8254097735422767	-0.5570400607347238	-0.2184665425240079	1.6949417569054617	-0.5715047363413321	-0.21067673477641743	1.5528959865348668	-0.5383410011572337	-0.23571514856246842	1.5170703298226966	-0.5871342578973396	-0.2195575793661878	1.5243480738137558	-0.5996392830491655	-0.21250119944632145	1.5515439477916835	-0.5289690791236806	-0.20675918518678274	1.9850056012194137	-0.5242041400897872	-0.2174377693991885	2.0510888080511966	-0.5940684263295065	-0.24511038173938182	1.9842429810144206	-0.48220989430845307	-0.2795136050730205	1.900393418312824	-0.47882494199925607	-0.29373893421252967	1.843157724891398	-0.5159466182471919	-0.16649502150199624	1.9877250282602077	-0.5733461131281485	-0.1579552371169556	1.9177478394767418	-0.6055762623090233	-0.16459433580881971	1.8941265867614838	-0.6669187230492366
25	0.8333333333333334	-0.2192110198819482	1.8233372282339813	-0.5195083022672896	-0.23866074241510218	1.8203065914335645	-0.46701243640304596	-0.23638856826644483	1.6892110371177755	-0.47652015278516446	-0.17325240241736115	1.5891767569288464	-0.4722186942386696	-0.2511509270466865	1.5381125336092751	-0.5274546943441707				-0.13513243636947336	1.5916589241795056	-0.4523827528985625	-0.19809601901631838	1.8250584242467724	-0.5602717961911047	-0.21737324879617426	1.6959961835100243	-0.5769535373687777	-0.206313051527193	1.5557726646226273	-0.5431425740436455	-0.23416199108496566	1.5215683626539098	-0.5935638064207448	-0.2177265678033362	1.5275149211102368	-0.6064116823344187	-0.20776054502978014	1.5552353934092555	-0.5343606231865655	-0.20664771450463312	1.9864033976935782	-0.5242589421310739	-0.22311063956539465	2.0515200878267397	-0.585328990549645	-0.24402386015631594	1.9854815955660128	-0.47908644177481374	-0.2798642362381285	1.9091571595672294	-0.4979036881791298	-0.25888646400796567	1.8779584180931774	-0.5777838531199015	-0.17031288871473058	1.9894718046735602	-0.5774303223002561	-0.15454806920106365	1.9161367168209325	-0.6335162322576702	-0.20310904338867	1.908425749556676	-0.6389474704714495
26	0.8666666666666667	-0.21884966124360333	1.825956164151318	-0.5200290942127263	-0.23833595169836458	1.823858508980849	-0.46752719834705864	-0.2351654934567497	1.6915947374364724	-0.473730023414068	-0.17325240241736115	1.5891767569288464	-0.4722186942386696	-0.2511509270466865	1.5381125336092751	-0.5274546943441707				-0.13513243636947336	1.5916589241795056	-0.4523827528985625	-0.19974782443496714	1.8290652624643828	-0.5673722927716803	-0.21402225427546365	1.7002912573446713	-0.5767158398423043	-0.1967643260867182	1.5581780351257053	-0.5494574226021579	-0.21510421665625573	1.526855051825871	-0.6009169785678888	-0.20200672107947787	1.5335881255814505	-0.6148704134884315	-0.20070526478099399	1.5576388651815747	-0.5371162375418534	-0.206797122272218	1.9872585702606196	-0.5246711904365604	-0.2291624603673818	2.0520339161799295	-0.5785459424908787	-0.2430060190569974	1.985418803944952	-0.47580235067301657	-0.27688469332154675	1.9169496740413299	-0.515524236967526	-0.2240339938034016	1.912759111294957	-0.6396210879926111	-0.17488637900447151	1.9875278348054242	-0.5839996848404229	-0.15712587085345248	1.9257884060131327	-0.6357456596230391	-0.2416237509685203	1.9227249123518682	-0.6109762178936624
27	0.9	-0.21475282503768073	1.8285022550381151	-0.5248061098842188	-0.2341761313666906	1.8248807308914128	-0.47224665447677866	-0.23193081425047438	1.6934468138372112	-0.4729629872045761	-0.17325240241736115	1.5891767569288464	-0.4722186942386696	-0.2511509270466865	1.5381125336092751	-0.5274546943441707				-0.13513243636947336	1.5916589241795056	-0.4523827528985625	-0.1922033360651487	1.8317867355344113	-0.5713652956880229	-0.2047328648617952	1.7082829577376295	-0.5831499312607024	-0.1863930097736236	1.566803235506143	-0.5609910186146264	-0.20743046900306913	1.5349856417306977	-0.6054547401471737	-0.19509332398927887	1.544134852794549	-0.6180503574338163	-0.18489756909334792	1.563769933166746	-0.5503922248841215	-0.20366488346102446	1.987322905292684	-0.5232903585253273	-0.2303378414594495	2.0518381902340517	-0.5732991391936549	-0.23988860396524847	1.9866814809343891	-0.47474870549324394	-0.27832613236247644	1.9235373210585864	-0.5201868616027927	-0.24421134139998707	1.9051242804158215	-0.6371136053166837	-0.17007589158441314	1.9896688743856386	-0.5770922273878785	-0.1603809560217541	1.9283050309219218	-0.6259509221306541	-0.19240790549246625	1.9315905820974604	-0.6625856767199774
28	0.9333333333333333	-0.21064723845915476	1.82729176682371	-0.5204345418780455	-0.2312417513801916	1.8234642352144743	-0.4709402980803573	-0.2281366415731642	1.6916753581591155	-0.46803343886612075	-0.17325240241736115	1.5891767569288464	-0.4722186942386696	-0.2511509270466865	1.5381125336092751	-0.5274546943441707				-0.13513243636947336	1.5916589241795056	-0.4523827528985625	-0.18835682083571453	1.8301247294021055	-0.5669215092248006	-0.19473515037905823	1.7043561888246137	-0.576027093962339	-0.16136725205572308	1.5794379805551904	-0.5403658672180733	-0.18069756020687797	1.5521175802573464	-0.5775112327991347	-0.16464907157428954	1.5623458492793234	-0.5907676484528048	-0.15688643010402178	1.5772290203445507	-0.5188127578388949	-0.2026094227302107	1.985970210224709	-0.5285091616297869	-0.2294900228027583	2.051868516027803	-0.5704652244645938	-0.23404539746027134	1.9849597187317918	-0.4640274027482146	-0.27592465040017056	1.920237680734275	-0.5128279500518191	-0.24762617351022884	1.9249355097778063	-0.6198450766665108	-0.16860609105536808	1.9873566652061392	-0.5907574341121974	-0.15951140818057102	1.9259972771924203	-0.6327980111130997	-0.19876216260448143	1.9309594280299014	-0.6352584390433297
29	0.9666666666666667	-0.20438583192740195	1.8282821982002613	-0.5187339018031842	-0.224141927228816	1.8255373016704164	-0.4744954703072302	-0.22678032047126637	1.6956454535724281	-0.46555310500560076	-0.17325240241736115	1.5891767569288464	-0.4722186942386696	-0.2511509270466865	1.5381125336092751	-0.5274546943441707				-0.13513243636947336	1.5916589241795056	-0.4523827528985625	-0.18293614807895595	1.832805515020868	-0.56874369802143	-0.1841222237473879	1.7098509449271502	-0.5792677941190179	-0.1425848929055584	1.594935939868181	-0.5394330062789499	-0.16113351324378253	1.5649318016896832	-0.5766923333342047	-0.1447339166524537	1.569793558356574	-0.5903412284186934	-0.13294178849535765	1.5877982728266617	-0.5144470573439291	-0.19944646886721973	1.9819003503655075	-0.5266448342608291	-0.22656641410185802	2.0516204021736613	-0.5613642265484693	-0.22978908564262215	1.981085110504588	-0.45869385971713833	-0.2729409954409505	1.9122857215911282	-0.502180147551372	-0.2647570893319672	1.918630152180498	-0.5841964049410211	-0.16507733838774366	1.9849134149595038	-0.5973620326930769	-0.15629448817400843	1.9309222755164241	-0.6322410001403689	-0.20909194423492478	1.9292182194249705	-0.6118473643484538
30	1.0	-0.19664262819244455	1.8290561051415883	-0.5188979646677098	-0.22100460366114616	1.8263824291566875	-0.47356526543285904	-0.22482238868408325	1.6939073042288861	-0.4675419360589051	-0.17325240241736115	1.5891767569288464	-0.4722186942386696	-0.2511509270466865	1.5381125336092751	-0.5274546943441707				-0.13513243636947336	1.5916589241795056	-0.4523827528985625	-0.17800255757312006	1.831725218566806	-0.5698716539503216	-0.1746974923383737	1.7114192289585584	-0.5767324485112493	-0.12418460688129464	1.6118572671365428	-0.535505322976954	-0.1474922829665668	1.568980881891738	-0.5703036737080354	-0.13113585307887365	1.5740497565800773	-0.5838131515096466	-0.11724583817804639	1.6054083808708552	-0.5200698419743082	-0.19021620267050598	1.9811959952163873	-0.5320288266302969	-0.21765555796120986	2.0500247422546316	-0.5579780002230982	-0.21906423450296086	1.97998981710562	-0.46641579958974055	-0.2637757463036023	1.912651352183526	-0.49035028656595614	-0.266524259740622	1.9158972716497433	-0.5606637088894005	-1.6947849577037426	1.8898515408738854	1.0816186329235682	-0.14995423238822134	1.9267507783276554	-0.6390018422129836	-0.19615441947836837	1.9282676237432756	-0.6246300060141521
31	1.0333333333333334	-0.1893793638462861	1.8278602119916347	-0.5222843625337652	-0.2091796732913684	1.8252176428401086	-0.477849661979919	-0.21842973190227438	1.6948988665295806	-0.47422399609811156	-0.17325240241736115	1.5891767569288464	-0.4722186942386696	-0.2511509270466865	1.5381125336092751	-0.5274546943441707				-0.13513243636947336	1.5916589241795056	-0.4523827528985625	-0.16867262210387104	1.8296861138620615	-0.5755242238434913	-0.15918263823421455	1.7091926217075593	-0.5715799274397996	-0.11364622005291208	1.613830304747936	-0.5386330503500456	-0.13385105268935105	1.5730299620937926	-0.5639150140818662	-0.11753778950529359	1.5783059548035807	-0.5772850746005999	-0.10312255733213908	1.6086452349843827	-0.5184269020860149	-1.7949583973528016	1.8916814774180937	1.2532372823220743	-0.21171477167456473	2.047250040976215	-0.5559481652247124	-0.21214652231636769	1.977609699827153	-0.46932977984982877	-0.2554867990491317	1.910557830468709	-0.4726033524427273	-0.2618674531480088	1.9096866377460895	-0.5527923840761155	-1.6938015389981518	1.8899003932379244	1.0805925108633072	-0.14063948370020155	1.925419006976382	-0.6454779181972443	-0.1924197348974218	1.9167025848242347	-0.6188836661023737
32	1.0666666666666667	-0.18005436618632326	1.8284017220987787	-0.5282803695562697	-0.2008021167051823	1.8261547456388971	-0.4781393171168518	-0.21106608997022228	1.6960377184600797	-0.4780101560510865	-0.17325240241736115	1.5891767569288464	-0.4722186942386696	-0.2511509270466865	1.5381125336092751	-0.5274546943441707				-0.13513243636947336	1.5916589241795056	-0.4523827528985625	-0.1613529402883773	1.8305451765761533	-0.5792494055298052	-0.14370581129145016	1.7078503278439567	-0.5582242187586074	-0.1066647391978015	1.6067459797885935	-0.5459235729641911	-0.13213387996678305	1.5728292546988512	-0.5639728437299439	-0.2842122786242525	1.5179777836379056	-1.2103216609782381	-0.09730428292534783	1.6002750160856989	-0.5287693894839808	-0.1693698405309289	1.978438264228839	-0.5337137186503649	-0.20334385730744076	2.044863308222345	-0.5636421698162943	-0.19838854064893863	1.974545921209211	-0.46707102877926404	-0.2381546533269711	1.9048870411629246	-0.4682717015819206	-0.24181994337295243	1.8916180097637	-0.5464914329917341	-0.13973769367087052	1.984001924674835	-0.6046342716523982	-0.1306449280124692	1.923988503155363	-0.6494186278614269	-0.18520536794106812	1.9130173630958216	-0.6218474506701279
